<?xml version="1.0" encoding="utf-8"?>
<!-- Generator: Adobe Illustrator 17.0.0, SVG Export Plug-In . SVG Version: 6.00 Build 0)  -->
<!DOCTYPE svg PUBLIC "-//W3C//DTD SVG 1.1//EN" "http://www.w3.org/Graphics/SVG/1.1/DTD/svg11.dtd">
<svg version="1.1" id="Layer_1" xmlns="http://www.w3.org/2000/svg" xmlns:xlink="http://www.w3.org/1999/xlink" x="0px" y="0px"
	 width="542.197px" height="546.715px" viewBox="0 0 542.197 546.715" enable-background="new 0 0 542.197 546.715"
	 xml:space="preserve">
<g>
	<path fill="#0992C5" d="M79.302,33.941l-10.276-1.013c-0.661-2.466-1.644-4.832-2.936-7.059l6.561-7.993
		c0.703-0.859,0.639-2.111-0.145-2.893l-6.24-6.243c-0.42-0.419-0.97-0.633-1.525-0.633c-0.485,0-0.97,0.162-1.369,0.491
		l-7.993,6.562c-2.231-1.293-4.596-2.276-7.06-2.936L47.308,1.946C47.199,0.842,46.271,0,45.161,0h-8.823
		c-1.11,0-2.038,0.842-2.148,1.946l-1.011,10.281c-2.464,0.66-4.829,1.643-7.054,2.936l-7.998-6.564
		c-0.4-0.329-0.884-0.49-1.369-0.49c-0.555,0-1.105,0.212-1.525,0.633l-6.24,6.241c-0.784,0.782-0.848,2.037-0.145,2.893
		l6.566,7.996c-1.291,2.225-2.277,4.59-2.936,7.057L2.197,33.942c-1.105,0.105-1.948,1.035-1.948,2.145v8.825
		c0,1.11,0.843,2.04,1.947,2.146l10.281,1.013c0.659,2.466,1.644,4.829,2.936,7.054l-6.562,7.994
		c-0.708,0.858-0.648,2.111,0.14,2.895l6.24,6.242c0.42,0.418,0.97,0.631,1.525,0.631c0.485,0,0.97-0.162,1.369-0.489l7.993-6.562
		c2.231,1.293,4.59,2.276,7.06,2.938l1.011,10.279c0.109,1.104,1.038,1.946,2.148,1.946h8.823c1.11,0,2.039-0.842,2.148-1.946
		l1.011-10.278c2.469-0.66,4.829-1.643,7.06-2.939l7.993,6.562c0.4,0.327,0.884,0.489,1.369,0.489c0.555,0,1.105-0.213,1.525-0.631
		l6.24-6.242c0.788-0.783,0.848-2.037,0.14-2.895l-6.557-7.991c1.292-2.228,2.275-4.591,2.936-7.057l10.276-1.013
		c1.104-0.109,1.947-1.036,1.947-2.146v-8.825C81.249,34.977,80.406,34.05,79.302,33.941z M40.751,52.45
		c-6.603,0-11.953-5.351-11.953-11.95c0-6.602,5.351-11.951,11.953-11.951c6.598,0,11.948,5.349,11.948,11.951
		C52.7,47.099,47.349,52.45,40.751,52.45z"/>
</g>
<g>
	<path fill="#0476A0" d="M91.544,104.389c-0.127-1.257-1.16-2.241-2.443-2.277v-0.007H36.194c-1.315,0-2.384,1.004-2.513,2.284
		h-0.026v13.139h22.342c1.174,0,2.127,0.896,2.243,2.039h0.023v29.232h11.009l6.488,6.487c0.456,0.677,1.229,1.122,2.106,1.122
		c1.402,0,2.538-1.136,2.538-2.537v-5.072h8.698v-0.008c1.197-0.033,2.188-0.889,2.417-2.027h0.051v-42.375H91.544z"/>
	<path fill="#0476A0" d="M51.01,122.515H3.774v0.006c-1.144,0.031-2.067,0.91-2.181,2.033H1.57v37.835h0.046
		c0.205,1.015,1.09,1.779,2.158,1.809v0.006h7.765v4.529c0,1.25,1.015,2.265,2.266,2.265c0.783,0,1.474-0.398,1.88-1.002
		l5.792-5.792H51.01c1.096,0,2.011-0.78,2.22-1.815h0.045v-37.835h-0.023C53.138,123.41,52.184,122.515,51.01,122.515z"/>
</g>
<g>
	<path fill="#0476A0" d="M79.162,232.164c-0.001-0.001-0.003-0.002-0.004-0.003l-32.088-32.09h-0.001l0,0
		c-0.984-0.984-2.578-0.984-3.562,0l-5.26,5.26l-11.246-11.246c-0.903-0.943-2.166-1.535-3.571-1.534
		c-2.743-0.001-4.966,2.231-4.964,4.986c0,1.426,0.603,2.703,1.558,3.612l11.203,11.205L3.95,239.63l0,0
		c-0.984,0.983-0.984,2.578,0,3.562l32.091,32.092c0.984,0.984,2.579,0.984,3.562,0l0.001-0.001l39.558-39.557
		C80.145,234.742,80.145,233.147,79.162,232.164z M59.458,241.392H16.3l29.003-29.004l21.579,21.58L59.458,241.392z"/>
	<path fill="#0476A0" d="M87.14,258.021l-5.97-10.339c-0.031-0.058-0.061-0.117-0.098-0.171l-0.015-0.025l-0.004,0.002
		c-0.302-0.418-0.788-0.69-1.351-0.69c-0.508,0-0.952,0.231-1.256,0.588l-0.016-0.009l-0.059,0.103
		c-0.086,0.116-0.162,0.239-0.217,0.375l-5.835,10.105c-1.144,1.535-1.829,3.432-1.829,5.493c0,5.09,4.124,9.217,9.216,9.217
		c5.093,0,9.217-4.127,9.217-9.217C88.923,261.419,88.256,259.546,87.14,258.021z"/>
</g>
<g>
	<path fill="#0476A0" d="M28.191,323.434c-1.453-2.968-2.221-6.302-2.221-9.642c0-1.828,0.264-3.707,0.806-5.735
		c0.242-0.913,0.546-1.785,0.888-2.632c-1.312-0.716-2.754-1.157-4.302-1.157c-5.738,0-10.382,5.405-10.382,12.08
		c0,4.67,2.282,8.711,5.616,10.722L4.525,333.62c-0.877,0.412-1.455,1.402-1.455,2.509v11.106c0,1.488,1.039,2.695,2.318,2.695
		h8.317v-11.653c0-3.395,1.89-6.474,4.824-7.847l10.764-5.013C28.895,324.783,28.527,324.121,28.191,323.434z"/>
	<path fill="#0476A0" d="M61.949,311.157h35.76v-0.001c0.002,0,0.004,0.001,0.006,0.001c1.021,0,1.847-0.828,1.847-1.847v-0.001
		v-6.745l0,0c0-1.021-0.828-1.847-1.847-1.847c-0.002,0-0.004,0.001-0.006,0.001v-0.005H57.749c1.693,2.217,2.983,4.853,3.698,7.799
		C61.673,309.444,61.837,310.315,61.949,311.157z"/>
	<path fill="#0476A0" d="M99.562,344.339c0-1.021-0.828-1.847-1.847-1.847c-0.002,0-0.004,0.001-0.006,0.001v-0.005H74.4v7.442
		v2.092c0,0.307-0.017,0.61-0.047,0.909h23.356v-0.001c0.002,0,0.004,0.001,0.006,0.001c1.021,0,1.847-0.828,1.847-1.847v-0.001
		V344.339L99.562,344.339z"/>
	<path fill="#0476A0" d="M97.715,321.605c-0.002,0-0.004,0.001-0.006,0.001v-0.005H60.698c-0.167,0.44-0.343,0.877-0.539,1.31
		c-0.382,0.841-0.811,1.646-1.284,2.409l10.791,5.148c0.819,0.396,1.545,0.941,2.18,1.577h25.863v-0.001
		c0.002,0,0.004,0.001,0.006,0.001c1.021,0,1.847-0.828,1.847-1.847v-0.001v-6.745l0,0
		C99.562,322.431,98.735,321.605,97.715,321.605z"/>
	<path fill="#0476A0" d="M67.389,335.178l-12.116-5.78l-5.124-2.444c2.238-1.41,4.055-3.585,5.245-6.206
		c0.943-2.081,1.505-4.438,1.505-6.955c0-1.414-0.223-2.756-0.537-4.052c-1.524-6.276-6.426-10.9-12.31-10.9
		c-5.773,0-10.6,4.459-12.218,10.557c-0.373,1.398-0.631,2.853-0.631,4.394c0,2.677,0.625,5.171,1.688,7.342
		c1.228,2.517,3.048,4.593,5.263,5.927l-4.907,2.285l-12.509,5.826c-1.088,0.509-1.801,1.735-1.801,3.104v11.654v2.092
		c0,1.842,1.284,3.337,2.869,3.337h44.492c1.585,0,2.869-1.494,2.869-3.337v-2.092v-11.653
		C69.168,336.912,68.465,335.698,67.389,335.178z"/>
</g>
<g>
	<path fill="#0476A0" d="M96.684,420.36l-16.185-7.719c3.774-2.373,6.338-7.016,6.338-12.354c0-7.754-5.397-14.034-12.058-14.034
		c-2.289,0-4.403,0.781-6.223,2.066c1.086,2.756,1.701,5.796,1.701,8.999c0,4.782-1.411,9.317-3.825,13.066
		c0.833,0.932,1.771,1.735,2.809,2.36l-0.01,0.003l10.426,4.971c2.947,1.427,4.853,4.583,4.853,8.045v13.54h11.148
		c1.489,0,2.694-1.401,2.694-3.13v-12.904C98.352,421.987,97.693,420.849,96.684,420.36z"/>
	<path fill="#0476A0" d="M32.134,412.602c0.861-0.548,1.651-1.221,2.368-1.987c-2.514-3.781-3.972-8.401-3.972-13.297
		c0-3.271,0.646-6.37,1.777-9.17c-1.76-1.172-3.773-1.895-5.948-1.895c-6.666,0-12.062,6.28-12.062,14.034
		c0,5.425,2.651,10.12,6.524,12.457l-16.349,7.61c-1.02,0.479-1.691,1.629-1.691,2.915v12.903c0,1.729,1.209,3.13,2.694,3.13H16.28
		v-13.54c0-3.503,1.938-6.672,4.943-8.08L32.134,412.602z"/>
	<path fill="#0476A0" d="M77.507,422.163l-14.077-6.715l-5.952-2.84c2.6-1.637,4.711-4.165,6.093-7.21
		c1.096-2.418,1.749-5.155,1.749-8.081c0-1.642-0.26-3.201-0.623-4.706c-1.771-7.293-7.466-12.665-14.302-12.665
		c-6.708,0-12.316,5.181-14.196,12.266c-0.434,1.625-0.733,3.315-0.733,5.105c0,3.109,0.727,6.008,1.961,8.529
		c1.427,2.925,3.542,5.337,6.116,6.888l-5.702,2.654l-14.534,6.768c-1.262,0.591-2.092,2.016-2.092,3.606v13.54v2.43
		c0,2.14,1.492,3.875,3.333,3.875h51.691c1.841,0,3.333-1.735,3.333-3.875v-2.43v-13.54
		C79.573,424.178,78.757,422.767,77.507,422.163z"/>
</g>
<g>
	<path fill="#3A4852" d="M294.152,486.598h-0.004c-0.021-0.639-0.537-1.15-1.179-1.162v-0.002h-2.457l-0.001,44.171l0.001,0.007
		c0,0.658-0.527,1.19-1.182,1.202v0.004l-37.226-0.001c-0.597,0-1.088-0.435-1.184-1.005v-2.634h34.666v-0.002
		c0.008,0,0.015,0.002,0.023,0.002c0.665,0,1.204-0.537,1.204-1.204c0-0.004-0.001-0.009-0.001-0.009l0.001-45.486
		c0-0.665-0.538-1.204-1.204-1.204c-0.007,0-0.015,0.002-0.022,0.002v-0.003h-4.209v9.523v11.913v4.124
		c0,0.317-0.258,0.574-0.576,0.574c-0.167,0-0.314-0.074-0.419-0.186l-4.144-4.144h-0.014c-0.092-0.106-0.224-0.176-0.375-0.176
		c-0.151,0-0.283,0.07-0.375,0.176h-0.014l-4.175,4.175h-0.007c-0.102,0.095-0.238,0.156-0.389,0.156
		c-0.317,0-0.575-0.257-0.575-0.574v-4.124v-11.913v-9.523h-21.852c-0.665,0-1.204,0.538-1.204,1.204
		c0,0.015,0.004,0.031,0.004,0.046v43.318v9.365c-0.001,0.015-0.004,0.029-0.004,0.043c0,0.015,0.004,0.029,0.004,0.043v0.056h0.006
		c0.051,0.618,0.562,1.105,1.193,1.105v0.001l44.485,0.001h0.021v-0.002c0.655-0.012,1.182-0.543,1.182-1.201l-0.001-0.007
		L294.152,486.598z"/>
</g>
<polyline fill="none" stroke="#BCBCC1" stroke-miterlimit="10" points="228.805,506.037 214.576,514.235 200.348,506.037 
	186.119,514.235 171.887,506.037 157.662,514.235 143.425,506.037 129.179,514.235 114.932,506.037 100.71,514.235 86.481,506.037 
	72.253,514.235 58.024,506.037 43.792,514.235 29.567,506.037 15.33,514.235 1.083,506.037 "/>
<polyline fill="none" stroke="#BCBCC1" stroke-miterlimit="10" points="541.947,506.037 527.71,514.235 513.464,506.037 
	499.217,514.235 484.995,506.037 470.766,514.235 456.538,506.037 442.309,514.235 428.077,506.037 413.852,514.235 
	399.615,506.037 385.369,514.235 371.122,506.037 356.9,514.235 342.671,506.037 328.443,514.235 314.214,506.037 "/>
</svg>
